 
http://www.imdb.com/title/tt1870419/


A search and recovery team heads into the haunted swamp to pick up the pieces and Marybeth learns the secret to ending the voodoo curse that has left Victor Crowley haunting and terrorizing Honey Island Swamp for decades. 



Director:
 BJ McDonnell 

Writers:
 Adam Green (characters), Adam Green 

Stars:
 Danielle Harris, Kane Hodder, Zach Galligan 

Genres:
  Action |  Comedy |  Horror |  Thriller 

Country:
 USA 

Language:
 English 




Media Info:
 General
 Complete name                            : Hatchet.III.2013.SCREENER.ReadNfo.AC3-2.0.XviD-AXED.avi
 Format                                   : AVI
 Format/Info                              : Audio Video Interleave
 File size                                : 698 MiB
 Duration                                 : 1h 21mn
 Overall bit rate                         : 1 200 Kbps

 Video
 ID                                       : 0
 Format                                   : MPEG-4 Visual
 Format profile                           : Advanced Simple@L5
 Format settings, BVOP                    : 2
 Format settings, QPel                    : No
 Format settings, GMC                     : No warppoints
 Format settings, Matrix                  : Default (H.263)
 Muxing mode                              : Packed bitstream
 Codec ID                                 : XVID
 Codec ID/Hint                            : XviD
 Duration                                 : 1h 21mn
 Bit rate                                 : 1 065 Kbps
 Width                                    : 720 pixels
 Height                                   : 272 pixels
 Display aspect ratio                     : 2.647
 Frame rate                               : 23.976 fps
 Color space                              : YUV
 Chroma subsampling                       : 4:2:0
 Bit depth                                : 8 bits
 Scan type                                : Progressive
 Compression mode                         : Lossy
 Bits/(Pixel*Frame)                       : 0.227
 Stream size                              : 619 MiB (89%)
 Writing library                          : XviD 64

 Audio
 ID                                       : 1
 Format                                   : AC-3
 Format/Info                              : Audio Coding 3
 Mode extension                           : CM (complete main)
 Format settings, Endianness              : Big
 Codec ID                                 : 2000
 Duration                                 : 1h 21mn
 Bit rate mode                            : Constant
 Bit rate                                 : 128 Kbps
 Channel(s)                               : 2 channels
 Channel positions                        : Front: L R
 Sampling rate                            : 44.1 KHz
 Bit depth                                : 16 bits
 Compression mode                         : Lossy
 Stream size                              : 74.5 MiB (11%)
 Alignment                                : Aligned on interleaves
 Interleave, duration                     : 70 ms (1.67 video frames)
 Interleave, preload duration             : 209 ms
 Title                                    : hatchet3



 SOURCE: 
 Screener

 NOTES: 
 In order to remove watermarks we didn't want included in the release, we had to crop off a small portion of the top and bottom of the screen. Due to the short runtime of the film, and the source only having 2.0 audio, we decided to go with a 700MB encode for this one. Take it or leave it!



screens


    	http://addpix.net/viewer.php?file=50074729232776341576.jpg
    	http://addpix.net/viewer.php?file=01488870639119827492.jpg
    	http://addpix.net/viewer.php?file=80715810504816772665.jpg
    	http://addpix.net/viewer.php?file=88727468702711088807.jpg